<svg t="1718452620049" class="icon" viewBox="0 0 1024 1024" version="1.1" xmlns="http://www.w3.org/2000/svg" p-id="6195"><path d="M856 548H588a40 40 0 0 0-40 40v268a40 40 0 0 0 40 40h268a40 40 0 0 0 40-40V588a40 40 0 0 0-40-40z m-420 0H168a40 40 0 0 0-40 40v268a40 40 0 0 0 40 40h268a40 40 0 0 0 40-40V588a40 40 0 0 0-40-40z m420-420H588a40 40 0 0 0-40 40v268a40 40 0 0 0 40 40h268a40 40 0 0 0 40-40V168a40 40 0 0 0-40-40z m-420 0H168a40 40 0 0 0-40 40v268a40 40 0 0 0 40 40h268a40 40 0 0 0 40-40V168a40 40 0 0 0-40-40z" p-id="6196" fill="#ffffff"></path></svg>