<svg t="1718597048479" class="icon" viewBox="0 0 1024 1024" version="1.1" xmlns="http://www.w3.org/2000/svg" p-id="6340"><path d="M492.242558 471.356119c0 11.854465-9.596472 21.450937-21.450937 21.450937L21.450937 492.807056c-11.854465 0-21.450937-9.596472-21.450937-21.450937L0 22.579934c0-11.854465 9.596472-21.450937 21.450937-21.450937l448.776185 0c11.854465 0 21.450937 9.596472 21.450937 21.450937L491.67806 471.356119z" fill="#ffffff" p-id="6341"></path><path d="M492.242558 1002.549063c0 11.854465-9.596472 21.450937-21.450937 21.450937L21.450937 1024c-11.854465 0-21.450937-9.596472-21.450937-21.450937L0 553.208379c0-11.854465 9.596472-21.450937 21.450937-21.450937l448.776185 0c11.854465 0 21.450937 9.596472 21.450937 21.450937L491.67806 1002.549063z" fill="#ffffff" p-id="6342"></path><path d="M1002.549063 0.564498 553.772878 0.564498c-11.854465 0-21.450937 9.596472-21.450937 21.450937l0 449.905182c0 11.854465 9.596472 21.450937 21.450937 21.450937l448.776185 0c11.854465 0 21.450937-9.596472 21.450937-21.450937L1024 22.579934C1024 10.16097 1014.403528 0.564498 1002.549063 0.564498zM960.776185 414.341786c0 9.031974-7.338479 15.805954-15.805954 15.805954l-333.618523 0c-9.031974 0-15.805954-7.338479-15.805954-15.805954L595.545755 80.158765c0-9.031974 7.338479-15.805954 15.805954-15.805954l333.618523 0c9.031974 0 15.805954 7.338479 15.805954 15.805954L960.776185 414.341786z" fill="#ffffff" p-id="6343"></path><path d="M1024 1002.549063c0 11.854465-9.596472 21.450937-21.450937 21.450937L553.772878 1024c-11.854465 0-21.450937-9.596472-21.450937-21.450937L532.32194 553.208379c0-11.854465 9.596472-21.450937 21.450937-21.450937l448.776185 0c11.854465 0 21.450937 9.596472 21.450937 21.450937L1024 1002.549063z" fill="#ffffff" p-id="6344"></path></svg>