<svg t="1718635028466" class="icon" viewBox="0 0 1024 1024" version="1.1" xmlns="http://www.w3.org/2000/svg" p-id="4313"><path d="M959.715556 835.697778L739.555556 312.888889V113.777778h113.777777a28.444444 28.444444 0 0 0 0-56.888889H170.666667a28.444444 28.444444 0 0 0 0 56.888889h113.777777v199.111111l-220.16 522.808889a89.315556 89.315556 0 0 0-7.395555 36.977778A94.435556 94.435556 0 0 0 151.324444 967.111111h721.351112A94.435556 94.435556 0 0 0 967.111111 872.675556a89.315556 89.315556 0 0 0-7.395555-36.977778z m-625.777778-500.622222L341.333333 324.266667V113.777778h341.333334v210.488889l4.551111 10.808889 113.777778 267.946666a589.368889 589.368889 0 0 0-113.777778 39.253334A362.951111 362.951111 0 0 1 540.444444 682.666667a237.226667 237.226667 0 0 1-154.737777-52.337778 304.924444 304.924444 0 0 0-148.48-56.888889zM872.675556 910.222222H151.324444a38.115556 38.115556 0 0 1-37.546666-37.546666 42.666667 42.666667 0 0 1 0-14.791112L213.902222 625.777778a239.502222 239.502222 0 0 1 139.946667 51.768889A302.08 302.08 0 0 0 540.444444 739.555556a419.84 419.84 0 0 0 167.822223-44.942223 455.111111 455.111111 0 0 1 113.777777-37.546666L910.222222 857.884444a42.666667 42.666667 0 0 1 2.844445 14.791112 38.115556 38.115556 0 0 1-40.391111 37.546666z" p-id="4314" fill="#ffffff"></path><path d="M597.333333 483.555556m-56.888889 0a56.888889 56.888889 0 1 0 113.777778 0 56.888889 56.888889 0 1 0-113.777778 0Z" p-id="4315" fill="#ffffff"></path></svg>