<svg t="1717916585700" class="icon" viewBox="0 0 1024 1024" version="1.1" xmlns="http://www.w3.org/2000/svg" p-id="7069"><path d="M725.76 242.3296l75.1104 196.9664 93.696 39.424c71.68 26.7264 91.2384 116.48 8.8576 134.912-48.6912 10.9056-96.2048 19.712-143.0528 26.4704-11.776 134.144-49.664 249.6512-151.2448 179.5584-39.7824-24.576-69.12-59.392-104.1408-59.392-34.9696 0-126.976 102.3488-182.272 76.288-45.568-20.3264-63.1808-119.2448-69.12-199.5264-44.544-6.6048-88.8832-14.336-133.0176-23.2448-38.4-7.5264-60.2624-47.9232-52.1216-76.6464 8.192-28.7232 27.5456-48.4352 52.3776-57.8048l101.2736-40.448c29.9008-79.36 54.3744-143.872 73.3696-193.5872 28.4672-74.5984 103.3216-74.5984 149.3504-38.0416 23.7568 18.8416 39.4752 34.816 59.5968 35.2256 20.0704 0.4096 39.424-16.384 64.2048-35.2256 48.0256-36.5568 117.7088-36.7104 157.1328 35.0208z m-152.9856 446.3104c-12.3904 10.4448-18.5344 20.992 16.6912 42.24 83.712 35.84 94.208-58.368 92.3136-68.3008-3.8912-6.5024-96.5632 15.5648-109.056 26.0608z m-248.832-26.3168c-0.4608 22.784 13.3632 102.1952 92.3136 68.352 42.2912-25.4976 22.8352-37.2736 15.7184-43.008-31.0272-14.4896-104.1408-31.744-108.032-25.344z m285.184-396.6464c-23.0912 17.408-72.6528 46.2336-104.1408 46.2336-31.488 0-73.0112-29.696-94.72-46.2336-21.76-16.4864-38.2976-8.192-46.2336 5.4784-5.2736 9.1648-33.5872 83.712-85.0944 223.744-42.3936 16.7424-84.7872 33.6384-127.0784 50.688 261.6832 49.8688 466.8416 53.5552 715.9296 1.024l-124.1088-52.1728-84.5312-221.3376c-7.7824-16.384-26.9312-24.832-50.0224-7.424z" p-id="7070" fill="#ffffff"></path></svg>